<svg version="1.1" id="aboutNetsol_x5F_SVG" xmlns="http://www.w3.org/2000/svg" xmlns:xlink="http://www.w3.org/1999/xlink" x="0px" y="0px" width="17px" height="17px" viewBox="0 0 17 17" enable-background="new 0 0 17 17" xml:space="preserve">
<g>
	
		<path fill="none" stroke="#1875BA" stroke-width="0.11" stroke-linecap="round" stroke-linejoin="round" stroke-miterlimit="10" d="
		M14.063,8.79C14.063,8.789,14.063,8.789,14.063,8.79L1.628,1.604H1.624v4.282c0,0.996,0.547,1.862,1.354,2.325c0,0,0,0,0,0.001
		l12.434,7.183h0.004v-4.281C15.415,10.117,14.868,9.25,14.063,8.79z M2.96,11.098C2.233,10.686,1.72,9.939,1.624,9.07v6.322
		l4.386-2.529L2.96,11.098L2.96,11.098z M11.029,4.141l3.052,1.762v0.001c0.726,0.414,1.239,1.158,1.335,2.029V1.608L11.029,4.141z"></path>
	
		<polyline fill="none" stroke="#1875BA" stroke-width="0.11" stroke-linecap="round" stroke-linejoin="round" stroke-miterlimit="10" points="
		15.416,1.608 13.563,5.604 15.413,3.804 11.029,4.141 15.416,5.599 15.118,6.971 14.001,2.438 	"></polyline>
	
		<polyline fill="none" stroke="#1875BA" stroke-width="0.11" stroke-linecap="round" stroke-linejoin="round" stroke-miterlimit="10" points="
		15.415,15.396 6.421,4.374 2.068,7.381 15.389,11.348 6.845,10.47 2.634,2.211 	"></polyline>
	
		<polyline fill="none" stroke="#1875BA" stroke-width="0.11" stroke-linecap="round" stroke-linejoin="round" stroke-miterlimit="10" points="
		1.628,1.604 4.597,9.123 13.52,8.477 10.52,12.584 14.88,9.538 15.411,15.396 12.846,8.116 	"></polyline>
	
		<polyline fill="none" stroke="#1875BA" stroke-width="0.11" stroke-linecap="round" stroke-linejoin="round" stroke-miterlimit="10" points="
		1.624,9.07 2.519,14.869 3.774,11.576 5.233,13.324 1.585,14.292 3.095,11.202 3.91,14.105 	"></polyline>
</g>
</svg>