<?xml version="1.0" encoding="utf-8"?>
<!-- Generator: Adobe Illustrator 22.0.1, SVG Export Plug-In . SVG Version: 6.00 Build 0)  -->
<svg version="1.1" id="Capa_1" xmlns="http://www.w3.org/2000/svg" xmlns:xlink="http://www.w3.org/1999/xlink" x="0px" y="0px"
	 viewBox="0 0 350 350" style="enable-background:new 0 0 350 350;" xml:space="preserve">
<style type="text/css">
	.st0{fill:none;stroke:#1B75BC;stroke-width:5;stroke-miterlimit:10;}
</style>
<g>
	<path class="st0" d="M175,171.6c34.5,0,62.5-34,62.5-75.9c0-41.9-9.2-75.9-62.5-75.9s-62.5,34-62.5,75.9
		C112.5,137.6,140.5,171.6,175,171.6z"/>
	<path class="st0" d="M57,287.4C57,284.9,57,286.7,57,287.4L57,287.4z"/>
	<path class="st0" d="M293,289.4C293,288.7,293,284.6,293,289.4L293,289.4z"/>
	<path class="st0" d="M292.8,284.4c-1.2-73-10.7-93.8-83.6-106.9c0,0-10.3,13.1-34.2,13.1s-34.2-13.1-34.2-13.1
		c-72.1,13-82.3,33.5-83.6,104.6c-0.1,5.8-0.2,6.1-0.2,5.4c0,1.3,0,3.6,0,7.7c0,0,17.4,35,118,35c100.6,0,118-35,118-35
		c0-2.6,0-4.4,0-5.7C292.9,289.8,292.9,289,292.8,284.4z"/>
</g>
</svg>
